<?xml version="1.0" encoding="UTF-8" standalone="no"?><svg xmlns="http://www.w3.org/2000/svg" xmlns:xlink="http://www.w3.org/1999/xlink" contentScriptType="application/ecmascript" contentStyleType="text/css" height="973px" preserveAspectRatio="none" style="width:1253px;height:973px;" version="1.1" viewBox="0 0 1253 973" width="1253px" zoomAndPan="magnify"><defs><filter height="300%" id="fggonak" width="300%" x="-1" y="-1"><feGaussianBlur result="blurOut" stdDeviation="2.0"/><feColorMatrix in="blurOut" result="blurOut2" type="matrix" values="0 0 0 0 0 0 0 0 0 0 0 0 0 0 0 0 0 0 .4 0"/><feOffset dx="4.0" dy="4.0" in="blurOut2" result="blurOut3"/><feBlend in="SourceGraphic" in2="blurOut3" mode="normal"/></filter></defs><g><!--cluster Вход--><rect fill="#FFFFFF" filter="url(#fggonak)" height="260.5" style="stroke: #000000; stroke-width: 2.0;" width="189" x="295.5" y="92.5"/><text fill="#000000" font-family="sans-serif" font-size="14" font-weight="bold" lengthAdjust="spacingAndGlyphs" textLength="40" x="370" y="107.4951">Вход</text><!--cluster VM2--><polygon fill="#FFFFFF" filter="url(#fggonak)" points="100.5,632,110.5,622,241.5,622,241.5,852,231.5,862,100.5,862,100.5,632" style="stroke: #000000; stroke-width: 2.0;"/><line style="stroke: #000000; stroke-width: 2.0;" x1="231.5" x2="240.5" y1="632" y2="623"/><line style="stroke: #000000; stroke-width: 2.0;" x1="100.5" x2="231.5" y1="632" y2="632"/><line style="stroke: #000000; stroke-width: 2.0;" x1="231.5" x2="231.5" y1="632" y2="862"/><text fill="#000000" font-family="sans-serif" font-size="14" font-weight="bold" lengthAdjust="spacingAndGlyphs" textLength="34" x="150" y="647.9951">VM2</text><!--cluster Master--><polygon fill="#FFFFFF" filter="url(#fggonak)" points="299.5,606,309.5,596,582.5,596,582.5,878,572.5,888,299.5,888,299.5,606" style="stroke: #000000; stroke-width: 2.0;"/><line style="stroke: #000000; stroke-width: 2.0;" x1="572.5" x2="581.5" y1="606" y2="597"/><line style="stroke: #000000; stroke-width: 2.0;" x1="299.5" x2="572.5" y1="606" y2="606"/><line style="stroke: #000000; stroke-width: 2.0;" x1="572.5" x2="572.5" y1="606" y2="888"/><text fill="#000000" font-family="sans-serif" font-size="14" font-weight="bold" lengthAdjust="spacingAndGlyphs" textLength="54" x="410" y="621.9951">Master</text><!--cluster Принтеры--><rect fill="#FFFFFF" filter="url(#fggonak)" height="87" style="stroke: #000000; stroke-width: 2.0;" width="302" x="944.5" y="701"/><path d="M1037.5,702 L1037.5,710.2969 L1027.5,720.2969 L944.5,720.2969 " fill="#FFFFFF" style="stroke: #000000; stroke-width: 2.0;"/><text fill="#000000" font-family="sans-serif" font-size="14" font-weight="bold" lengthAdjust="spacingAndGlyphs" textLength="83" x="947.5" y="714.9951">Принтеры</text><!--entity Zyxel--><rect fill="#FEFECE" filter="url(#fggonak)" height="36.2969" style="stroke: #A80036; stroke-width: 1.5;" width="56" x="412.5" y="127.5"/><rect fill="#FEFECE" height="5" style="stroke: #A80036; stroke-width: 1.5;" width="10" x="407.5" y="132.5"/><rect fill="#FEFECE" height="5" style="stroke: #A80036; stroke-width: 1.5;" width="10" x="407.5" y="153.7969"/><text fill="#000000" font-family="sans-serif" font-size="14" lengthAdjust="spacingAndGlyphs" textLength="36" x="422.5" y="150.4951">Zyxel</text><!--entity Zyxel 2--><rect fill="#FEFECE" filter="url(#fggonak)" height="36.2969" style="stroke: #A80036; stroke-width: 1.5;" width="69" x="354" y="301"/><rect fill="#FEFECE" height="5" style="stroke: #A80036; stroke-width: 1.5;" width="10" x="349" y="306"/><rect fill="#FEFECE" height="5" style="stroke: #A80036; stroke-width: 1.5;" width="10" x="349" y="327.2969"/><text fill="#000000" font-family="sans-serif" font-size="14" lengthAdjust="spacingAndGlyphs" textLength="49" x="364" y="323.9951">Zyxel 2</text><!--entity linksys--><rect fill="#FEFECE" filter="url(#fggonak)" height="36.2969" style="stroke: #A80036; stroke-width: 1.5;" width="66" x="311.5" y="127.5"/><rect fill="#FEFECE" height="5" style="stroke: #A80036; stroke-width: 1.5;" width="10" x="306.5" y="132.5"/><rect fill="#FEFECE" height="5" style="stroke: #A80036; stroke-width: 1.5;" width="10" x="306.5" y="153.7969"/><text fill="#000000" font-family="sans-serif" font-size="14" lengthAdjust="spacingAndGlyphs" textLength="46" x="321.5" y="150.4951">linksys</text><!--entity Asterisk--><polygon fill="#FFFFFF" filter="url(#fggonak)" points="501,257,511,247,606,247,606,381.0781,596,391.0781,501,391.0781,501,257" style="stroke: #000000; stroke-width: 1.5;"/><line style="stroke: #000000; stroke-width: 1.5;" x1="596" x2="605" y1="257" y2="248"/><line style="stroke: #000000; stroke-width: 1.5;" x1="501" x2="596" y1="257" y2="257"/><line style="stroke: #000000; stroke-width: 1.5;" x1="596" x2="596" y1="257" y2="391.0781"/><text fill="#000000" font-family="sans-serif" font-size="14" font-weight="bold" lengthAdjust="spacingAndGlyphs" textLength="65" x="516" y="279.9951">Asterisk</text><text fill="#000000" font-family="sans-serif" font-size="14" lengthAdjust="spacingAndGlyphs" textLength="0" x="550.5" y="296.292"/><text fill="#000000" font-family="sans-serif" font-size="14" lengthAdjust="spacingAndGlyphs" textLength="0" x="550.5" y="312.5889"/><text fill="#000000" font-family="sans-serif" font-size="14" lengthAdjust="spacingAndGlyphs" textLength="0" x="550.5" y="328.8857"/><text fill="#000000" font-family="sans-serif" font-size="14" lengthAdjust="spacingAndGlyphs" textLength="0" x="550.5" y="345.1826"/><text fill="#000000" font-family="sans-serif" font-size="14" lengthAdjust="spacingAndGlyphs" textLength="0" x="550.5" y="361.4795"/><text fill="#000000" font-family="sans-serif" font-size="14" lengthAdjust="spacingAndGlyphs" textLength="0" x="550.5" y="377.7764"/><!--entity ICS--><polygon fill="#FFFFFF" filter="url(#fggonak)" points="803,257,813,247,868,247,868,381.0781,858,391.0781,803,391.0781,803,257" style="stroke: #000000; stroke-width: 1.5;"/><line style="stroke: #000000; stroke-width: 1.5;" x1="858" x2="867" y1="257" y2="248"/><line style="stroke: #000000; stroke-width: 1.5;" x1="803" x2="858" y1="257" y2="257"/><line style="stroke: #000000; stroke-width: 1.5;" x1="858" x2="858" y1="257" y2="391.0781"/><text fill="#000000" font-family="sans-serif" font-size="14" font-weight="bold" lengthAdjust="spacingAndGlyphs" textLength="25" x="818" y="279.9951">ICS</text><text fill="#000000" font-family="sans-serif" font-size="14" lengthAdjust="spacingAndGlyphs" textLength="0" x="832.5" y="296.292"/><text fill="#000000" font-family="sans-serif" font-size="14" lengthAdjust="spacingAndGlyphs" textLength="0" x="832.5" y="312.5889"/><text fill="#000000" font-family="sans-serif" font-size="14" lengthAdjust="spacingAndGlyphs" textLength="0" x="832.5" y="328.8857"/><text fill="#000000" font-family="sans-serif" font-size="14" lengthAdjust="spacingAndGlyphs" textLength="0" x="832.5" y="345.1826"/><text fill="#000000" font-family="sans-serif" font-size="14" lengthAdjust="spacingAndGlyphs" textLength="0" x="832.5" y="361.4795"/><text fill="#000000" font-family="sans-serif" font-size="14" lengthAdjust="spacingAndGlyphs" textLength="0" x="832.5" y="377.7764"/><!--entity r2--><rect fill="#FEFECE" filter="url(#fggonak)" height="167.7813" style="stroke: #000000; stroke-width: 1.5;" width="74" x="143.5" y="670"/><text fill="#000000" font-family="sans-serif" font-size="14" lengthAdjust="spacingAndGlyphs" textLength="54" x="153.5" y="692.9951">clients1</text><line style="stroke: #000000; stroke-width: 1.0;" x1="175.5" x2="185.5" y1="701.2969" y2="701.2969"/><text fill="#000000" font-family="sans-serif" font-size="14" lengthAdjust="spacingAndGlyphs" textLength="54" x="153.5" y="719.292">clients2</text><line style="stroke: #000000; stroke-width: 1.0;" x1="175.5" x2="185.5" y1="727.5938" y2="727.5938"/><text fill="#000000" font-family="sans-serif" font-size="14" lengthAdjust="spacingAndGlyphs" textLength="54" x="153.5" y="745.5889">clients3</text><line style="stroke: #000000; stroke-width: 1.0;" x1="175.5" x2="185.5" y1="753.8906" y2="753.8906"/><text fill="#000000" font-family="sans-serif" font-size="14" lengthAdjust="spacingAndGlyphs" textLength="54" x="153.5" y="771.8857">clients4</text><line style="stroke: #000000; stroke-width: 1.0;" x1="175.5" x2="185.5" y1="780.1875" y2="780.1875"/><text fill="#000000" font-family="sans-serif" font-size="14" lengthAdjust="spacingAndGlyphs" textLength="27" x="167" y="798.1826">test</text><line style="stroke: #000000; stroke-width: 1.0;" x1="175.5" x2="185.5" y1="806.4844" y2="806.4844"/><text fill="#000000" font-family="sans-serif" font-size="14" lengthAdjust="spacingAndGlyphs" textLength="53" x="154" y="824.4795">intranet</text><!--entity Clients5--><polygon fill="#FFFFFF" filter="url(#fggonak)" points="606.5,667.5,616.5,657.5,710.5,657.5,710.5,840.4688,700.5,850.4688,606.5,850.4688,606.5,667.5" style="stroke: #000000; stroke-width: 1.5;"/><line style="stroke: #000000; stroke-width: 1.5;" x1="700.5" x2="709.5" y1="667.5" y2="658.5"/><line style="stroke: #000000; stroke-width: 1.5;" x1="606.5" x2="700.5" y1="667.5" y2="667.5"/><line style="stroke: #000000; stroke-width: 1.5;" x1="700.5" x2="700.5" y1="667.5" y2="850.4688"/><text fill="#000000" font-family="sans-serif" font-size="14" font-weight="bold" lengthAdjust="spacingAndGlyphs" textLength="64" x="621.5" y="690.4951">Clients5</text><text fill="#000000" font-family="sans-serif" font-size="14" lengthAdjust="spacingAndGlyphs" textLength="0" x="655.5" y="706.792"/><text fill="#000000" font-family="sans-serif" font-size="14" lengthAdjust="spacingAndGlyphs" textLength="0" x="655.5" y="723.0889"/><text fill="#000000" font-family="sans-serif" font-size="14" lengthAdjust="spacingAndGlyphs" textLength="0" x="655.5" y="739.3857"/><text fill="#000000" font-family="sans-serif" font-size="14" lengthAdjust="spacingAndGlyphs" textLength="0" x="655.5" y="755.6826"/><text fill="#000000" font-family="sans-serif" font-size="14" lengthAdjust="spacingAndGlyphs" textLength="0" x="655.5" y="771.9795"/><text fill="#000000" font-family="sans-serif" font-size="14" lengthAdjust="spacingAndGlyphs" textLength="0" x="655.5" y="788.2764"/><text fill="#000000" font-family="sans-serif" font-size="14" lengthAdjust="spacingAndGlyphs" textLength="0" x="655.5" y="804.5732"/><text fill="#000000" font-family="sans-serif" font-size="14" lengthAdjust="spacingAndGlyphs" textLength="0" x="655.5" y="820.8701"/><text fill="#000000" font-family="sans-serif" font-size="14" lengthAdjust="spacingAndGlyphs" textLength="0" x="655.5" y="837.167"/><!--entity r1--><rect fill="#FEFECE" filter="url(#fggonak)" height="220.375" style="stroke: #000000; stroke-width: 1.5;" width="216" x="342.5" y="644"/><text fill="#000000" font-family="sans-serif" font-size="14" lengthAdjust="spacingAndGlyphs" textLength="133" x="384" y="666.9951">Windows 7 Future2</text><line style="stroke: #000000; stroke-width: 1.0;" x1="445.5" x2="455.5" y1="675.2969" y2="675.2969"/><text fill="#000000" font-family="sans-serif" font-size="14" lengthAdjust="spacingAndGlyphs" textLength="98" x="401.5" y="693.292">Windows 7 SC</text><line style="stroke: #000000; stroke-width: 1.0;" x1="445.5" x2="455.5" y1="701.5938" y2="701.5938"/><text fill="#000000" font-family="sans-serif" font-size="14" lengthAdjust="spacingAndGlyphs" textLength="143" x="379" y="719.5889">Windows 7 Принтер</text><line style="stroke: #000000; stroke-width: 1.0;" x1="445.5" x2="455.5" y1="727.8906" y2="727.8906"/><text fill="#000000" font-family="sans-serif" font-size="14" lengthAdjust="spacingAndGlyphs" textLength="196" x="352.5" y="745.8857">Windows Server 2008 R2 1С</text><line style="stroke: #000000; stroke-width: 1.0;" x1="445.5" x2="455.5" y1="754.1875" y2="754.1875"/><text fill="#000000" font-family="sans-serif" font-size="14" lengthAdjust="spacingAndGlyphs" textLength="50" x="425.5" y="772.1826">*.direct</text><line style="stroke: #000000; stroke-width: 1.0;" x1="445.5" x2="455.5" y1="780.4844" y2="780.4844"/><text fill="#000000" font-family="sans-serif" font-size="14" lengthAdjust="spacingAndGlyphs" textLength="39" x="431" y="798.4795">portal</text><line style="stroke: #000000; stroke-width: 1.0;" x1="445.5" x2="455.5" y1="806.7813" y2="806.7813"/><text fill="#000000" font-family="sans-serif" font-size="14" lengthAdjust="spacingAndGlyphs" textLength="76" x="412.5" y="824.7764">mail.clients</text><line style="stroke: #000000; stroke-width: 1.0;" x1="445.5" x2="455.5" y1="833.0781" y2="833.0781"/><text fill="#000000" font-family="sans-serif" font-size="14" lengthAdjust="spacingAndGlyphs" textLength="34" x="433.5" y="851.0732">aseo</text><!--entity HP--><rect fill="#FEFECE" filter="url(#fggonak)" height="36.2969" style="stroke: #A80036; stroke-width: 1.5;" width="39" x="1191" y="736"/><rect fill="#FEFECE" height="5" style="stroke: #A80036; stroke-width: 1.5;" width="10" x="1186" y="741"/><rect fill="#FEFECE" height="5" style="stroke: #A80036; stroke-width: 1.5;" width="10" x="1186" y="762.2969"/><text fill="#000000" font-family="sans-serif" font-size="14" lengthAdjust="spacingAndGlyphs" textLength="19" x="1201" y="758.9951">HP</text><!--entity Kyocera--><rect fill="#FEFECE" filter="url(#fggonak)" height="36.2969" style="stroke: #A80036; stroke-width: 1.5;" width="75" x="1081" y="736"/><rect fill="#FEFECE" height="5" style="stroke: #A80036; stroke-width: 1.5;" width="10" x="1076" y="741"/><rect fill="#FEFECE" height="5" style="stroke: #A80036; stroke-width: 1.5;" width="10" x="1076" y="762.2969"/><text fill="#000000" font-family="sans-serif" font-size="14" lengthAdjust="spacingAndGlyphs" textLength="55" x="1091" y="758.9951">Kyocera</text><!--entity Samsung--><rect fill="#FEFECE" filter="url(#fggonak)" height="36.2969" style="stroke: #A80036; stroke-width: 1.5;" width="85" x="961" y="736"/><rect fill="#FEFECE" height="5" style="stroke: #A80036; stroke-width: 1.5;" width="10" x="956" y="741"/><rect fill="#FEFECE" height="5" style="stroke: #A80036; stroke-width: 1.5;" width="10" x="956" y="762.2969"/><text fill="#000000" font-family="sans-serif" font-size="14" lengthAdjust="spacingAndGlyphs" textLength="65" x="971" y="758.9951">Samsung</text><!--entity wifi--><ellipse cx="238.5" cy="114" fill="#FEFECE" filter="url(#fggonak)" rx="8" ry="8" style="stroke: #A80036; stroke-width: 2.0;"/><path d="M238.5,122 L238.5,149 M225.5,130 L251.5,130 M238.5,149 L225.5,164 M238.5,149 L251.5,164 " fill="#FEFECE" filter="url(#fggonak)" style="stroke: #A80036; stroke-width: 2.0;"/><text fill="#000000" font-family="sans-serif" font-size="14" lengthAdjust="spacingAndGlyphs" textLength="76" x="200.5" y="183.9951">Wi-Fi cliens</text><!--entity number--><path d="M304,15 C304,12 306,10 309,10 C312,10 314,12 314,15 C314,12 316,10 319,10 C322,10 324,12 324,15 C324,12 326,10 329,10 C332,10 334,12 334,15 C334,12 336,10 339,10 C342,10 344,12 344,15 C344,12 346,10 349,10 C352,10 354,12 354,15 C354,12 356,10 359,10 C362,10 364,12 364,15 C364,12 366,10 369,10 C372,10 374,12 374,15 C377,15 379,17 379,20 C379,23 377,25 374,25 C377,25 379,27 379,30 C379,33 377,35 374,35 C374,38 371,40 369,40 C366,40 364,38 364,35 C364,38 361,40 359,40 C356,40 354,38 354,35 C354,38 351,40 349,40 C346,40 344,38 344,35 C344,38 341,40 339,40 C336,40 334,38 334,35 C334,38 331,40 329,40 C326,40 324,38 324,35 C324,38 321,40 319,40 C316,40 314,38 314,35 C314,38 311,40 309,40 C306,40 304,38 304,35 C301,35 299,33 299,30 C299,27 301,25 304,25 C301,25 299,23 299,20 C299,17 301,15 304,15 " fill="#FEFECE" filter="url(#fggonak)" style="stroke: #000000; stroke-width: 1.5;"/><text fill="#000000" font-family="sans-serif" font-size="14" lengthAdjust="spacingAndGlyphs" textLength="59" x="311" y="30.9951">414-000</text><!--entity MTS--><path d="M418.5,15 C418.5,12 420.5,10 423.5,10 C426.5,10 428.5,12 428.5,15 C428.5,12 430.5,10 433.5,10 C436.5,10 438.5,12 438.5,15 C438.5,12 440.5,10 443.5,10 C446.5,10 448.5,12 448.5,15 C448.5,12 450.5,10 453.5,10 C456.5,10 458.5,12 458.5,15 C458.5,12 460.5,10 463.5,10 C466.5,10 468.5,12 468.5,15 C471.5,15 473.5,17 473.5,20 C473.5,23 471.5,25 468.5,25 C471.5,25 473.5,27 473.5,30 C473.5,33 471.5,35 468.5,35 C468.5,38 465.5,40 463.5,40 C460.5,40 458.5,38 458.5,35 C458.5,38 455.5,40 453.5,40 C450.5,40 448.5,38 448.5,35 C448.5,38 445.5,40 443.5,40 C440.5,40 438.5,38 438.5,35 C438.5,38 435.5,40 433.5,40 C430.5,40 428.5,38 428.5,35 C428.5,38 425.5,40 423.5,40 C420.5,40 418.5,38 418.5,35 C415.5,35 413.5,33 413.5,30 C413.5,27 415.5,25 418.5,25 C415.5,25 413.5,23 413.5,20 C413.5,17 415.5,15 418.5,15 " fill="#FEFECE" filter="url(#fggonak)" style="stroke: #000000; stroke-width: 1.5;"/><text fill="#000000" font-family="sans-serif" font-size="14" lengthAdjust="spacingAndGlyphs" textLength="30" x="425.5" y="30.9951">MTS</text><!--entity Yarnet--><path d="M504,15 C504,12 506,10 509,10 C512,10 514,12 514,15 C514,12 516,10 519,10 C522,10 524,12 524,15 C524,12 526,10 529,10 C532,10 534,12 534,15 C534,12 536,10 539,10 C542,10 544,12 544,15 C544,12 546,10 549,10 C552,10 554,12 554,15 C554,12 556,10 559,10 C562,10 564,12 564,15 C567,15 569,17 569,20 C569,23 567,25 564,25 C567,25 569,27 569,30 C569,33 567,35 564,35 C564,38 561,40 559,40 C556,40 554,38 554,35 C554,38 551,40 549,40 C546,40 544,38 544,35 C544,38 541,40 539,40 C536,40 534,38 534,35 C534,38 531,40 529,40 C526,40 524,38 524,35 C524,38 521,40 519,40 C516,40 514,38 514,35 C514,38 511,40 509,40 C506,40 504,38 504,35 C501,35 499,33 499,30 C499,27 501,25 504,25 C501,25 499,23 499,20 C499,17 501,15 504,15 " fill="#FEFECE" filter="url(#fggonak)" style="stroke: #000000; stroke-width: 1.5;"/><text fill="#000000" font-family="sans-serif" font-size="14" lengthAdjust="spacingAndGlyphs" textLength="45" x="511" y="30.9951">Yarnet</text><!--entity phones--><polygon fill="#FEFECE" filter="url(#fggonak)" points="641,257.5,651,247.5,768,247.5,768,380.9844,758,390.9844,641,390.9844,641,257.5" style="stroke: #000000; stroke-width: 1.5;"/><line style="stroke: #000000; stroke-width: 1.5;" x1="758" x2="767" y1="257.5" y2="248.5"/><line style="stroke: #000000; stroke-width: 1.5;" x1="641" x2="758" y1="257.5" y2="257.5"/><line style="stroke: #000000; stroke-width: 1.5;" x1="758" x2="758" y1="257.5" y2="390.9844"/><text fill="#000000" font-family="sans-serif" font-size="14" font-weight="bold" lengthAdjust="spacingAndGlyphs" textLength="87" x="656" y="280.4951">Телефоны</text><line style="stroke: #000000; stroke-width: 1.0;" x1="641" x2="758" y1="283.7969" y2="283.7969"/><line style="stroke: #000000; stroke-width: 1.0;" x1="758" x2="768" y1="283.7969" y2="273.7969"/><line style="stroke: #000000; stroke-width: 1.0;" x1="641" x2="758" y1="285.7969" y2="285.7969"/><line style="stroke: #000000; stroke-width: 1.0;" x1="758" x2="768" y1="285.7969" y2="275.7969"/><text fill="#000000" font-family="sans-serif" font-size="14" lengthAdjust="spacingAndGlyphs" textLength="54" x="672.5" y="300.792">phone1</text><line style="stroke: #000000; stroke-width: 1.0;" x1="641" x2="758" y1="308.0938" y2="308.0938"/><line style="stroke: #000000; stroke-width: 1.0;" x1="758" x2="768" y1="308.0938" y2="298.0938"/><text fill="#000000" font-family="sans-serif" font-size="14" lengthAdjust="spacingAndGlyphs" textLength="54" x="672.5" y="325.0889">phone2</text><line style="stroke: #000000; stroke-width: 1.0;" x1="641" x2="758" y1="332.3906" y2="332.3906"/><line style="stroke: #000000; stroke-width: 1.0;" x1="758" x2="768" y1="332.3906" y2="322.3906"/><text fill="#000000" font-family="sans-serif" font-size="14" lengthAdjust="spacingAndGlyphs" textLength="54" x="672.5" y="349.3857">phone3</text><line style="stroke: #000000; stroke-width: 1.0;" x1="641" x2="758" y1="356.6875" y2="356.6875"/><line style="stroke: #000000; stroke-width: 1.0;" x1="758" x2="768" y1="356.6875" y2="346.6875"/><text fill="#000000" font-family="sans-serif" font-size="14" lengthAdjust="spacingAndGlyphs" textLength="12" x="693.5" y="373.6826">...</text><!--entity comps--><polygon fill="#FEFECE" filter="url(#fggonak)" points="745.5,680,755.5,670,925.5,670,925.5,827.7813,915.5,837.7813,745.5,837.7813,745.5,680" style="stroke: #000000; stroke-width: 1.5;"/><line style="stroke: #000000; stroke-width: 1.5;" x1="915.5" x2="924.5" y1="680" y2="671"/><line style="stroke: #000000; stroke-width: 1.5;" x1="745.5" x2="915.5" y1="680" y2="680"/><line style="stroke: #000000; stroke-width: 1.5;" x1="915.5" x2="915.5" y1="680" y2="837.7813"/><text fill="#000000" font-family="sans-serif" font-size="14" font-weight="bold" lengthAdjust="spacingAndGlyphs" textLength="140" x="760.5" y="702.9951">Рабочие станции</text><line style="stroke: #000000; stroke-width: 1.0;" x1="745.5" x2="915.5" y1="706.2969" y2="706.2969"/><line style="stroke: #000000; stroke-width: 1.0;" x1="915.5" x2="925.5" y1="706.2969" y2="696.2969"/><line style="stroke: #000000; stroke-width: 1.0;" x1="745.5" x2="915.5" y1="708.2969" y2="708.2969"/><line style="stroke: #000000; stroke-width: 1.0;" x1="915.5" x2="925.5" y1="708.2969" y2="698.2969"/><text fill="#000000" font-family="sans-serif" font-size="14" lengthAdjust="spacingAndGlyphs" textLength="48" x="806.5" y="723.292">comp1</text><line style="stroke: #000000; stroke-width: 1.0;" x1="745.5" x2="915.5" y1="730.5938" y2="730.5938"/><line style="stroke: #000000; stroke-width: 1.0;" x1="915.5" x2="925.5" y1="730.5938" y2="720.5938"/><text fill="#000000" font-family="sans-serif" font-size="14" lengthAdjust="spacingAndGlyphs" textLength="48" x="806.5" y="747.5889">comp2</text><line style="stroke: #000000; stroke-width: 1.0;" x1="745.5" x2="915.5" y1="754.8906" y2="754.8906"/><line style="stroke: #000000; stroke-width: 1.0;" x1="915.5" x2="925.5" y1="754.8906" y2="744.8906"/><text fill="#000000" font-family="sans-serif" font-size="14" lengthAdjust="spacingAndGlyphs" textLength="48" x="806.5" y="771.8857">comp3</text><line style="stroke: #000000; stroke-width: 1.0;" x1="745.5" x2="915.5" y1="779.1875" y2="779.1875"/><line style="stroke: #000000; stroke-width: 1.0;" x1="915.5" x2="925.5" y1="779.1875" y2="769.1875"/><text fill="#000000" font-family="sans-serif" font-size="14" lengthAdjust="spacingAndGlyphs" textLength="48" x="806.5" y="796.1826">comp4</text><line style="stroke: #000000; stroke-width: 1.0;" x1="745.5" x2="915.5" y1="803.4844" y2="803.4844"/><line style="stroke: #000000; stroke-width: 1.0;" x1="915.5" x2="925.5" y1="803.4844" y2="793.4844"/><text fill="#000000" font-family="sans-serif" font-size="14" lengthAdjust="spacingAndGlyphs" textLength="12" x="824.5" y="820.4795">...</text><!--entity Коммутаторы--><rect fill="#FEFECE" filter="url(#fggonak)" height="36.2969" style="stroke: #A80036; stroke-width: 1.5;" width="121" x="775" y="536"/><rect fill="#FEFECE" height="5" style="stroke: #A80036; stroke-width: 1.5;" width="10" x="770" y="541"/><rect fill="#FEFECE" height="5" style="stroke: #A80036; stroke-width: 1.5;" width="10" x="770" y="562.2969"/><text fill="#000000" font-family="sans-serif" font-size="14" lengthAdjust="spacingAndGlyphs" textLength="101" x="785" y="558.9951">Коммутаторы</text><polygon fill="#FBFB77" filter="url(#fggonak)" points="6,924,6,964.2656,193,964.2656,193,934,183,924,6,924" style="stroke: #A80036; stroke-width: 1.0;"/><line style="stroke: #A80036; stroke-width: 1.0;" x1="183" x2="183" y1="924" y2="934"/><line style="stroke: #A80036; stroke-width: 1.0;" x1="193" x2="183" y1="934" y2="934"/><text fill="#000000" font-family="sans-serif" font-size="13" lengthAdjust="spacingAndGlyphs" textLength="92" x="12" y="941.0669">192.168.0.247</text><text fill="#000000" font-family="sans-serif" font-size="13" lengthAdjust="spacingAndGlyphs" textLength="166" x="12" y="956.1997">Windows Hyper-V 2008 R2</text><polygon fill="#FBFB77" filter="url(#fggonak)" points="228,924,228,964.2656,405,964.2656,405,934,395,924,228,924" style="stroke: #A80036; stroke-width: 1.0;"/><line style="stroke: #A80036; stroke-width: 1.0;" x1="395" x2="395" y1="924" y2="934"/><line style="stroke: #A80036; stroke-width: 1.0;" x1="405" x2="395" y1="934" y2="934"/><text fill="#000000" font-family="sans-serif" font-size="13" lengthAdjust="spacingAndGlyphs" textLength="92" x="234" y="941.0669">192.168.0.252</text><text fill="#000000" font-family="sans-serif" font-size="13" lengthAdjust="spacingAndGlyphs" textLength="156" x="234" y="956.1997">Windows Server 2008 R2</text><polygon fill="#FBFB77" filter="url(#fggonak)" points="903.5,291.5,903.5,346.8984,1115.5,346.8984,1115.5,301.5,1105.5,291.5,903.5,291.5" style="stroke: #A80036; stroke-width: 1.0;"/><line style="stroke: #A80036; stroke-width: 1.0;" x1="1105.5" x2="1105.5" y1="291.5" y2="301.5"/><line style="stroke: #A80036; stroke-width: 1.0;" x1="1115.5" x2="1105.5" y1="301.5" y2="301.5"/><text fill="#000000" font-family="sans-serif" font-size="13" lengthAdjust="spacingAndGlyphs" textLength="191" x="909.5" y="308.5669">Интернет Контроль Сервер</text><text fill="#000000" font-family="sans-serif" font-size="13" lengthAdjust="spacingAndGlyphs" textLength="108" x="909.5" y="323.6997">192.168.255.254</text><text fill="#000000" font-family="sans-serif" font-size="13" lengthAdjust="spacingAndGlyphs" textLength="92" x="909.5" y="338.8325">192.168.1.254</text><polygon fill="#FBFB77" filter="url(#fggonak)" points="497,451,497,476.1328,610,476.1328,610,461,600,451,497,451" style="stroke: #A80036; stroke-width: 1.0;"/><line style="stroke: #A80036; stroke-width: 1.0;" x1="600" x2="600" y1="451" y2="461"/><line style="stroke: #A80036; stroke-width: 1.0;" x1="610" x2="600" y1="461" y2="461"/><text fill="#000000" font-family="sans-serif" font-size="13" lengthAdjust="spacingAndGlyphs" textLength="92" x="503" y="468.0669">192.168.1.253</text><polygon fill="#FBFB77" filter="url(#fggonak)" points="602,924,602,964.2656,715,964.2656,715,934,705,924,602,924" style="stroke: #A80036; stroke-width: 1.0;"/><line style="stroke: #A80036; stroke-width: 1.0;" x1="705" x2="705" y1="924" y2="934"/><line style="stroke: #A80036; stroke-width: 1.0;" x1="715" x2="705" y1="934" y2="934"/><text fill="#000000" font-family="sans-serif" font-size="13" lengthAdjust="spacingAndGlyphs" textLength="92" x="608" y="941.0669">192.168.0.248</text><text fill="#000000" font-family="sans-serif" font-size="13" lengthAdjust="spacingAndGlyphs" textLength="69" x="608" y="956.1997">Centos 6.8</text><path d="M440.5,44.086 C440.5,64.709 440.5,99.446 440.5,122.173 " fill="none" style="stroke: #A80036; stroke-width: 1.0;"/><polygon fill="#A80036" points="440.5,127.394,444.5,118.394,440.5,122.394,436.5,118.394,440.5,127.394" style="stroke: #A80036; stroke-width: 1.0;"/><path d="M519.977,44.086 C503.378,65.057 475.228,100.623 457.269,123.313 " fill="none" style="stroke: #A80036; stroke-width: 1.0;"/><polygon fill="#A80036" points="454.039,127.394,462.7604,122.8182,457.1415,123.473,456.4867,117.8542,454.039,127.394" style="stroke: #A80036; stroke-width: 1.0;"/><path d="M435.324,163.571 C425.824,194.903 405.619,261.54 395.13,296.134 " fill="none" style="stroke: #A80036; stroke-width: 1.0;"/><polygon fill="#A80036" points="393.655,300.998,400.0949,293.5463,395.1061,296.2132,392.4392,291.2245,393.655,300.998" style="stroke: #A80036; stroke-width: 1.0;"/><path d="M451.748,163.571 C463.986,182.144 484.397,213.123 503.74,242.479 " fill="none" style="stroke: #A80036; stroke-width: 1.0;"/><polygon fill="#A80036" points="506.585,246.797,504.9717,237.0812,503.8333,242.6223,498.2922,241.4839,506.585,246.797" style="stroke: #A80036; stroke-width: 1.0;"/><path d="M277.439,191.021 C308.883,226.972 351.426,275.612 373.623,300.991 " fill="none" style="stroke: #A80036; stroke-width: 1.0;"/><polygon fill="#A80036" points="274.048,187.143,276.9609,196.5512,277.3392,190.907,282.9834,191.2853,274.048,187.143" style="stroke: #A80036; stroke-width: 1.0;"/><path d="M468.699,148.453 C531.279,154.03 684.231,174.65 785.5,247 C790.388,250.492 794.965,254.617 799.21,259.093 " fill="none" style="stroke: #A80036; stroke-width: 1.0;"/><polygon fill="#A80036" points="802.698,262.929,799.6028,253.5791,799.3343,259.2296,793.6838,258.9611,802.698,262.929" style="stroke: #A80036; stroke-width: 1.0;"/><path d="M835.5,391.174 C835.5,438.995 835.5,498.888 835.5,530.71 " fill="none" style="stroke: #A80036; stroke-width: 1.0;"/><polygon fill="#A80036" points="835.5,535.944,839.5,526.944,835.5,530.944,831.5,526.944,835.5,535.944" style="stroke: #A80036; stroke-width: 1.0;"/><path d="M341.082,44.086 C341.784,64.709 342.966,99.446 343.74,122.173 " fill="none" style="stroke: #A80036; stroke-width: 1.0;"/><polygon fill="#A80036" points="343.918,127.394,347.6097,118.2632,343.748,122.3969,339.6143,118.5352,343.918,127.394" style="stroke: #A80036; stroke-width: 1.0;"/><path d="M377.875,145.5 C387.596,145.5 397.318,145.5 407.039,145.5 " fill="none" style="stroke: #A80036; stroke-width: 1.0;"/><polygon fill="#A80036" points="412.123,145.5,403.123,141.5,407.123,145.5,403.123,149.5,412.123,145.5" style="stroke: #A80036; stroke-width: 1.0;"/><path d="M606.291,319 C616.092,319 625.892,319 635.693,319 " fill="none" style="stroke: #A80036; stroke-width: 1.0;"/><polygon fill="#A80036" points="640.818,319,631.818,315,635.818,319,631.818,323,640.818,319" style="stroke: #A80036; stroke-width: 1.0;"/><path d="M774.751,555.008 C607.495,555.312 151.033,558.149 127.5,580 C99.601,605.905 94.5622,648.2188 96.6392,684.5135 C97.1585,693.5872 98.1225,702.2847 99.2852,710.2556 C99.5758,712.2483 99.8789,714.1956 100.1906,716.092 C100.2685,716.5661 100.347,717.037 100.4259,717.5047 " fill="none" style="stroke: #A80036; stroke-width: 1.0;"/><polygon fill="#A80036" points="100.4259,717.5047,102.8723,707.9645,99.5938,712.5744,94.9839,709.2959,100.4259,717.5047" style="stroke: #A80036; stroke-width: 1.0;"/><path d="M774.906,555.897 C643.461,558.125 342.585,564.857 326.5,580 C298.78,606.0965 293.7442,648.4133 295.778,684.6616 C296.2864,693.7237 297.2367,702.4065 298.3849,710.3618 C298.6719,712.3506 298.9713,714.294 299.2793,716.1864 C299.3178,716.423 299.3564,716.6588 299.3951,716.8937 " fill="none" style="stroke: #A80036; stroke-width: 1.0;"/><polygon fill="#A80036" points="299.3951,716.8937,301.8771,707.3627,298.5814,711.9604,293.9837,708.6647,299.3951,716.8937" style="stroke: #A80036; stroke-width: 1.0;"/><path d="M774.773,558.942 C758.261,562.574 741.399,568.96 728.5,580 C706.602,598.743 691.47,625.351 681.046,652.095 " fill="none" style="stroke: #A80036; stroke-width: 1.0;"/><polygon fill="#A80036" points="679.154,657.088,686.0831,650.0889,680.9254,652.4123,678.602,647.2546,679.154,657.088" style="stroke: #A80036; stroke-width: 1.0;"/><path d="M896.202,555.606 C987.862,557.095 1153.12,562.239 1173.5,580 C1216.86,617.799 1216.58,692.886 1213.31,730.471 " fill="none" style="stroke: #A80036; stroke-width: 1.0;"/><polygon fill="#A80036" points="1212.81,735.735,1217.6442,727.1542,1213.2834,730.7575,1209.6802,726.3967,1212.81,735.735" style="stroke: #A80036; stroke-width: 1.0;"/><path d="M896.144,554.383 C954.913,555.04 1038.7,559.692 1063.5,580 C1109.29,617.49 1117.5,693.053 1118.62,730.67 " fill="none" style="stroke: #A80036; stroke-width: 1.0;"/><polygon fill="#A80036" points="1118.74,735.936,1122.5353,726.8478,1118.6268,730.9373,1114.5374,727.0288,1118.74,735.936" style="stroke: #A80036; stroke-width: 1.0;"/><path d="M896.03,558.177 C913.064,561.748 930.475,568.292 943.5,580 C987.666,619.702 999.324,693.585 1002.399,730.621 " fill="none" style="stroke: #A80036; stroke-width: 1.0;"/><polygon fill="#A80036" points="1002.794,735.809,1006.1011,726.532,1002.4154,730.8234,998.1241,727.1377,1002.794,735.809" style="stroke: #A80036; stroke-width: 1.0;"/><path d="M835.5,572.225 C835.5,593.119 835.5,629.898 835.5,664.851 " fill="none" style="stroke: #A80036; stroke-width: 1.0;"/><polygon fill="#A80036" points="835.5,669.993,839.5,660.993,835.5,664.993,831.5,660.993,835.5,669.993" style="stroke: #A80036; stroke-width: 1.0;"/><path d="M103.3671,862.2215 C103.3534,862.5077 103.3397,862.7937 103.326,863.0795 C103.2986,863.6512 103.2713,864.2222 103.244,864.7923 C103.0256,869.3537 102.8097,873.8639 102.5984,878.2785 C101.753,895.9367 100.981,912.0636 100.419,923.8025 " fill="none" style="stroke: #A80036; stroke-width: 1.0; stroke-dasharray: 7.0,7.0;"/><path d="M313.8685,888.0309 C313.9193,889.0924 313.9697,890.1458 314.0197,891.1904 C314.2198,895.3689 314.4131,899.407 314.5975,903.2602 C314.9665,910.9666 315.3,917.933 315.581,923.8025 " fill="none" style="stroke: #A80036; stroke-width: 1.0; stroke-dasharray: 7.0,7.0;"/><path d="M868.125,319 C879.906,319 891.688,319 903.469,319 " fill="none" style="stroke: #A80036; stroke-width: 1.0; stroke-dasharray: 7.0,7.0;"/><path d="M553.5,391.25 C553.5,414.351 553.5,437.451 553.5,450.839 " fill="none" style="stroke: #A80036; stroke-width: 1.0; stroke-dasharray: 7.0,7.0;"/><path d="M658.5,850.652 C658.5,878.4091 658.5,905.9738 658.5,923.6615 " fill="none" style="stroke: #A80036; stroke-width: 1.0; stroke-dasharray: 7.0,7.0;"/></g></svg>